<svg xmlns="http://www.w3.org/2000/svg" xmlns:xlink="http://www.w3.org/1999/xlink" width="400" zoomAndPan="magnify" viewBox="0 0 300 74.999997" height="100" preserveAspectRatio="xMidYMid meet" version="1.0"><defs><g/></defs><g fill="#000000" fill-opacity="1"><g transform="translate(76.115229, 47.543862)"><g><path d="M 3.34375 -5.71875 C 3.269531 -5.800781 3.207031 -5.539062 3.15625 -4.9375 C 3.101562 -4.332031 3.078125 -3.539062 3.078125 -2.5625 C 3.078125 -1.59375 3.085938 -0.609375 3.109375 0.390625 C 3.140625 1.390625 3.195312 2.222656 3.28125 2.890625 C 3.375 3.566406 3.484375 3.90625 3.609375 3.90625 C 3.691406 3.75 3.738281 3.226562 3.75 2.34375 C 3.757812 1.457031 3.742188 0.441406 3.703125 -0.703125 C 3.671875 -1.859375 3.625 -2.914062 3.5625 -3.875 C 3.5 -4.832031 3.425781 -5.445312 3.34375 -5.71875 Z M 6.109375 -3.96875 C 6.066406 -3.101562 6.023438 -2.234375 5.984375 -1.359375 C 5.921875 0.117188 5.847656 1.597656 5.765625 3.078125 C 5.660156 4.828125 5.523438 6.582031 5.359375 8.34375 C 5.296875 8.820312 5.191406 9.289062 5.046875 9.75 C 4.828125 10.519531 4.351562 10.90625 3.625 10.90625 C 2.863281 10.9375 2.375 10.570312 2.15625 9.8125 C 1.988281 9.039062 1.863281 8.253906 1.78125 7.453125 C 1.34375 2.703125 1.097656 -2.0625 1.046875 -6.84375 C 1.015625 -8.425781 1.015625 -10.003906 1.046875 -11.578125 C 1.054688 -12.328125 1.445312 -12.671875 2.21875 -12.609375 C 2.8125 -12.585938 3.113281 -12.285156 3.125 -11.703125 C 3.144531 -11.054688 3.15625 -10.394531 3.15625 -9.71875 C 3.15625 -9.25 3.164062 -8.757812 3.1875 -8.25 C 3.1875 -8.082031 3.21875 -7.910156 3.28125 -7.734375 C 3.300781 -7.660156 3.3125 -7.609375 3.3125 -7.578125 C 3.3125 -7.546875 3.320312 -7.53125 3.34375 -7.53125 C 3.375 -7.53125 3.394531 -7.53125 3.40625 -7.53125 C 3.425781 -7.53125 3.445312 -7.53125 3.46875 -7.53125 C 3.488281 -7.53125 3.515625 -7.535156 3.546875 -7.546875 C 3.585938 -7.566406 3.613281 -7.585938 3.625 -7.609375 C 3.625 -7.660156 3.632812 -7.710938 3.65625 -7.765625 C 3.726562 -7.953125 3.769531 -8.125 3.78125 -8.28125 C 3.832031 -9.5 3.859375 -10.710938 3.859375 -11.921875 C 3.859375 -12.816406 3.867188 -13.71875 3.890625 -14.625 C 3.910156 -17.226562 3.910156 -19.847656 3.890625 -22.484375 C 3.867188 -24.148438 3.816406 -25.828125 3.734375 -27.515625 C 3.679688 -28.242188 3.644531 -28.984375 3.625 -29.734375 C 3.625 -29.890625 3.617188 -30.039062 3.609375 -30.1875 C 3.585938 -30.457031 3.578125 -30.726562 3.578125 -31 C 3.609375 -31.9375 4.066406 -32.332031 4.953125 -32.1875 C 5.429688 -32.101562 5.710938 -31.816406 5.796875 -31.328125 C 5.816406 -31.109375 5.847656 -30.882812 5.890625 -30.65625 C 5.960938 -30.039062 6.023438 -29.421875 6.078125 -28.796875 C 6.160156 -26.203125 6.203125 -23.601562 6.203125 -21 C 6.203125 -18.457031 6.191406 -15.914062 6.171875 -13.375 C 6.171875 -12.21875 6.160156 -11.066406 6.140625 -9.921875 C 6.140625 -9.835938 6.140625 -9.753906 6.140625 -9.671875 C 6.140625 -9.265625 6.140625 -8.863281 6.140625 -8.46875 C 6.160156 -8.132812 6.234375 -7.910156 6.359375 -7.796875 C 6.484375 -7.679688 6.710938 -7.644531 7.046875 -7.6875 C 11.515625 -8.03125 15.757812 -9.171875 19.78125 -11.109375 C 22.039062 -12.191406 24.078125 -13.597656 25.890625 -15.328125 C 27.253906 -16.648438 28.265625 -17.984375 28.921875 -19.328125 C 29.578125 -20.679688 29.960938 -21.976562 30.078125 -23.21875 C 30.191406 -24.457031 30.125 -25.609375 29.875 -26.671875 C 29.445312 -28.503906 28.472656 -30.085938 26.953125 -31.421875 C 25.441406 -32.765625 23.554688 -33.804688 21.296875 -34.546875 C 19.035156 -35.285156 16.570312 -35.671875 13.90625 -35.703125 C 11.25 -35.742188 8.5625 -35.382812 5.84375 -34.625 C 3.8125 -34.0625 1.851562 -33.28125 -0.03125 -32.28125 C -1.09375 -31.71875 -2.070312 -31.019531 -2.96875 -30.1875 C -3.394531 -29.800781 -3.753906 -29.390625 -4.046875 -28.953125 C -4.335938 -28.515625 -4.46875 -27.992188 -4.4375 -27.390625 C -4.4375 -27.179688 -4.507812 -27.023438 -4.65625 -26.921875 C -4.8125 -26.816406 -4.992188 -26.753906 -5.203125 -26.734375 C -5.421875 -26.710938 -5.660156 -26.722656 -5.921875 -26.765625 C -6.378906 -26.867188 -6.640625 -27.160156 -6.703125 -27.640625 C -6.722656 -28.117188 -6.617188 -28.59375 -6.390625 -29.0625 C -6.023438 -29.769531 -5.554688 -30.394531 -4.984375 -30.9375 C -4.304688 -31.601562 -3.578125 -32.1875 -2.796875 -32.6875 C -2.015625 -33.1875 -1.195312 -33.640625 -0.34375 -34.046875 C 3.144531 -35.660156 6.8125 -36.660156 10.65625 -37.046875 C 12.28125 -37.203125 14.039062 -37.222656 15.9375 -37.109375 C 17.84375 -36.992188 19.738281 -36.703125 21.625 -36.234375 C 23.507812 -35.765625 25.257812 -35.082031 26.875 -34.1875 C 28.5 -33.289062 29.84375 -32.132812 30.90625 -30.71875 C 31.976562 -29.300781 32.640625 -27.597656 32.890625 -25.609375 C 33.015625 -24.335938 32.929688 -23.101562 32.640625 -21.90625 C 32.347656 -20.71875 31.898438 -19.5625 31.296875 -18.4375 C 30.140625 -16.414062 28.644531 -14.679688 26.8125 -13.234375 C 25.082031 -11.859375 23.238281 -10.707031 21.28125 -9.78125 C 19.320312 -8.851562 17.28125 -8.09375 15.15625 -7.5 C 13.175781 -6.957031 11.160156 -6.582031 9.109375 -6.375 C 8.984375 -6.375 8.859375 -6.363281 8.734375 -6.34375 C 8.722656 -6.332031 8.691406 -6.328125 8.640625 -6.328125 C 8.554688 -6.328125 8.488281 -6.304688 8.4375 -6.265625 C 8.382812 -6.234375 8.347656 -6.175781 8.328125 -6.09375 C 8.285156 -5.90625 8.367188 -5.78125 8.578125 -5.71875 C 8.773438 -5.632812 8.960938 -5.5625 9.140625 -5.5 C 9.296875 -5.4375 9.453125 -5.375 9.609375 -5.3125 C 12.867188 -4.070312 16.046875 -2.660156 19.140625 -1.078125 C 22.242188 0.503906 25.28125 2.203125 28.25 4.015625 C 28.625 4.222656 28.96875 4.472656 29.28125 4.765625 C 29.351562 4.816406 29.394531 4.882812 29.40625 4.96875 C 29.425781 5.0625 29.4375 5.148438 29.4375 5.234375 C 29.414062 5.390625 29.363281 5.503906 29.28125 5.578125 C 29.195312 5.648438 29.09375 5.703125 28.96875 5.734375 C 28.46875 5.867188 28.007812 5.789062 27.59375 5.5 C 26.382812 4.851562 25.164062 4.21875 23.9375 3.59375 C 22.59375 2.851562 21.242188 2.128906 19.890625 1.421875 C 17.898438 0.359375 15.882812 -0.625 13.84375 -1.53125 C 11.800781 -2.445312 9.734375 -3.320312 7.640625 -4.15625 C 7.578125 -4.175781 7.515625 -4.207031 7.453125 -4.25 C 7.265625 -4.332031 7.070312 -4.40625 6.875 -4.46875 C 6.675781 -4.53125 6.503906 -4.53125 6.359375 -4.46875 C 6.210938 -4.40625 6.128906 -4.238281 6.109375 -3.96875 Z M 6.109375 -3.96875 "/></g></g></g><g fill="#000000" fill-opacity="1"><g transform="translate(104.982254, 47.543862)"><g><path d="M 10.359375 -7.125 C 10.484375 -7.0625 10.539062 -6.953125 10.53125 -6.796875 C 10.519531 -6.640625 10.472656 -6.5 10.390625 -6.375 C 9.742188 -5.414062 9.050781 -4.566406 8.3125 -3.828125 C 7.570312 -3.085938 6.757812 -2.535156 5.875 -2.171875 C 4.988281 -1.804688 3.96875 -1.703125 2.8125 -1.859375 C 2.050781 -1.984375 1.472656 -2.242188 1.078125 -2.640625 C 0.691406 -3.046875 0.40625 -3.613281 0.21875 -4.34375 C -0.09375 -5.488281 -0.164062 -6.671875 0 -7.890625 C 0.144531 -8.585938 0.582031 -8.953125 1.3125 -8.984375 C 1.96875 -8.984375 2.320312 -8.6875 2.375 -8.09375 C 2.394531 -7.613281 2.394531 -7.132812 2.375 -6.65625 C 2.375 -6.59375 2.375 -6.535156 2.375 -6.484375 C 2.34375 -5.179688 2.554688 -4.289062 3.015625 -3.8125 C 3.472656 -3.332031 4.070312 -3.203125 4.8125 -3.421875 C 5.550781 -3.648438 6.335938 -4.175781 7.171875 -5 C 7.273438 -5.101562 7.40625 -5.242188 7.5625 -5.421875 C 7.71875 -5.597656 7.894531 -5.78125 8.09375 -5.96875 C 8.351562 -6.238281 8.566406 -6.46875 8.734375 -6.65625 C 9.265625 -7.1875 9.804688 -7.34375 10.359375 -7.125 Z M 1.125 -11.078125 C 0.539062 -11.117188 0.207031 -11.429688 0.125 -12.015625 C 0.0625 -12.472656 0.132812 -12.910156 0.34375 -13.328125 C 0.53125 -13.679688 0.835938 -13.925781 1.265625 -14.0625 C 1.691406 -14.195312 2.097656 -14.160156 2.484375 -13.953125 C 2.617188 -13.878906 2.71875 -13.769531 2.78125 -13.625 C 2.84375 -13.488281 2.863281 -13.378906 2.84375 -13.296875 C 2.820312 -11.796875 2.25 -11.054688 1.125 -11.078125 Z M 1.125 -11.078125 "/></g></g></g><g fill="#000000" fill-opacity="1"><g transform="translate(113.707838, 47.543862)"><g><path d="M 12.5625 -7.125 C 12.914062 -7.0625 13.113281 -6.867188 13.15625 -6.546875 C 13.195312 -6.222656 13.03125 -5.894531 12.65625 -5.5625 C 12.289062 -5.25 11.941406 -4.957031 11.609375 -4.6875 C 10.773438 -4 9.878906 -3.265625 8.921875 -2.484375 C 8.171875 -1.878906 7.484375 -1.210938 6.859375 -0.484375 C 6.398438 0.00390625 6.054688 0.566406 5.828125 1.203125 C 5.578125 2.015625 5.15625 2.742188 4.5625 3.390625 C 4.238281 3.765625 3.863281 3.992188 3.4375 4.078125 C 3.007812 4.171875 2.5625 4.148438 2.09375 4.015625 C 1.863281 3.953125 1.691406 3.832031 1.578125 3.65625 C 1.460938 3.476562 1.441406 3.273438 1.515625 3.046875 C 1.585938 2.691406 1.71875 2.359375 1.90625 2.046875 C 2.1875 1.648438 2.484375 1.257812 2.796875 0.875 C 2.804688 0.84375 2.832031 0.804688 2.875 0.765625 C 3.96875 -0.585938 4.035156 -1.976562 3.078125 -3.40625 C 2.835938 -3.71875 2.578125 -4.019531 2.296875 -4.3125 C 2.203125 -4.414062 2.101562 -4.519531 2 -4.625 C 1.832031 -4.832031 1.65625 -5.03125 1.46875 -5.21875 C 1.113281 -5.59375 0.769531 -5.988281 0.4375 -6.40625 C -0.5 -7.726562 -0.4375 -8.988281 0.625 -10.1875 C 1.539062 -11.28125 2.691406 -12.035156 4.078125 -12.453125 C 4.929688 -12.703125 5.753906 -12.628906 6.546875 -12.234375 C 7.316406 -11.816406 7.671875 -11.171875 7.609375 -10.296875 C 7.523438 -9.703125 7.234375 -9.351562 6.734375 -9.25 C 6.085938 -9.125 5.628906 -9.328125 5.359375 -9.859375 C 5.265625 -10.066406 5.203125 -10.242188 5.171875 -10.390625 C 5.128906 -10.554688 5.070312 -10.679688 5 -10.765625 C 4.9375 -10.847656 4.832031 -10.875 4.6875 -10.84375 C 4.550781 -10.8125 4.328125 -10.695312 4.015625 -10.5 C 3.523438 -10.21875 3.109375 -9.84375 2.765625 -9.375 C 2.191406 -8.695312 2.15625 -7.96875 2.65625 -7.1875 C 2.832031 -6.9375 3.023438 -6.707031 3.234375 -6.5 C 3.460938 -6.25 3.679688 -6 3.890625 -5.75 C 4.304688 -5.332031 4.703125 -4.90625 5.078125 -4.46875 C 5.453125 -4.03125 5.773438 -3.5625 6.046875 -3.0625 C 6.253906 -3.101562 6.617188 -3.300781 7.140625 -3.65625 C 7.671875 -4.007812 8.238281 -4.421875 8.84375 -4.890625 C 9.457031 -5.359375 10.015625 -5.785156 10.515625 -6.171875 C 10.929688 -6.492188 11.226562 -6.71875 11.40625 -6.84375 C 11.539062 -6.945312 11.710938 -7.023438 11.921875 -7.078125 C 12.140625 -7.128906 12.351562 -7.144531 12.5625 -7.125 Z M 12.5625 -7.125 "/></g></g></g><g fill="#000000" fill-opacity="1"><g transform="translate(124.938648, 47.543862)"><g><path d="M 17.328125 -7.0625 C 17.472656 -7.019531 17.570312 -6.921875 17.625 -6.765625 C 17.675781 -6.609375 17.628906 -6.425781 17.484375 -6.21875 C 17.066406 -5.65625 16.441406 -5.078125 15.609375 -4.484375 C 14.785156 -3.890625 13.882812 -3.394531 12.90625 -3 C 11.9375 -2.601562 11.003906 -2.441406 10.109375 -2.515625 C 9.210938 -2.585938 8.488281 -3.003906 7.9375 -3.765625 C 7.800781 -3.960938 7.671875 -4.15625 7.546875 -4.34375 C 7.316406 -4.800781 7.015625 -5.21875 6.640625 -5.59375 C 6.179688 -6.007812 5.757812 -6.007812 5.375 -5.59375 C 4.644531 -4.800781 4.0625 -3.914062 3.625 -2.9375 C 3.414062 -2.445312 3.207031 -1.96875 3 -1.5 C 2.863281 -1.132812 2.71875 -0.785156 2.5625 -0.453125 C 2.1875 0.484375 1.53125 0.804688 0.59375 0.515625 C 0.132812 0.335938 -0.125 0.0234375 -0.1875 -0.421875 C -0.207031 -0.597656 -0.207031 -0.773438 -0.1875 -0.953125 C -0.1875 -1.015625 -0.1875 -1.082031 -0.1875 -1.15625 C -0.125 -2.945312 -0.0625 -4.738281 0 -6.53125 C 0.125 -10.769531 0.269531 -15.007812 0.4375 -19.25 C 0.476562 -20.164062 0.507812 -21.085938 0.53125 -22.015625 C 0.59375 -23.828125 0.675781 -25.628906 0.78125 -27.421875 C 0.882812 -29.222656 1.039062 -31.019531 1.25 -32.8125 C 1.351562 -33.519531 1.519531 -34.21875 1.75 -34.90625 C 1.976562 -35.476562 2.363281 -35.878906 2.90625 -36.109375 C 3.457031 -36.335938 4.03125 -36.378906 4.625 -36.234375 C 5.21875 -36.097656 5.710938 -35.769531 6.109375 -35.25 C 6.710938 -34.375 7.054688 -33.40625 7.140625 -32.34375 C 7.472656 -29.019531 7.445312 -25.847656 7.0625 -22.828125 C 6.675781 -19.816406 6.003906 -16.722656 5.046875 -13.546875 C 4.484375 -11.671875 3.945312 -10.03125 3.4375 -8.625 C 3.269531 -8.164062 3.125 -7.765625 3 -7.421875 C 2.789062 -6.796875 2.6875 -6.398438 2.6875 -6.234375 C 2.6875 -6.078125 2.773438 -6.082031 2.953125 -6.25 C 3.972656 -7.34375 5.03125 -7.867188 6.125 -7.828125 C 7.21875 -7.785156 8.273438 -7.132812 9.296875 -5.875 C 9.378906 -5.75 9.460938 -5.625 9.546875 -5.5 C 9.796875 -5.164062 10.03125 -4.894531 10.25 -4.6875 C 10.476562 -4.476562 10.722656 -4.351562 10.984375 -4.3125 C 11.679688 -4.207031 12.421875 -4.378906 13.203125 -4.828125 C 13.984375 -5.273438 14.757812 -5.800781 15.53125 -6.40625 C 16.332031 -7.03125 16.929688 -7.25 17.328125 -7.0625 Z M 4.546875 -32.84375 C 4.472656 -33.28125 4.398438 -33.523438 4.328125 -33.578125 C 4.265625 -33.628906 4.195312 -33.570312 4.125 -33.40625 C 4.050781 -33.238281 3.988281 -33.019531 3.9375 -32.75 C 3.882812 -32.476562 3.84375 -32.222656 3.8125 -31.984375 C 3.78125 -31.753906 3.753906 -31.613281 3.734375 -31.5625 C 3.628906 -30.15625 3.519531 -28.367188 3.40625 -26.203125 C 3.289062 -24.035156 3.179688 -21.882812 3.078125 -19.75 C 2.992188 -18.019531 2.921875 -16.550781 2.859375 -15.34375 C 2.796875 -14.132812 2.738281 -13.398438 2.6875 -13.140625 C 3.363281 -14.984375 3.867188 -17.191406 4.203125 -19.765625 C 4.535156 -22.335938 4.722656 -24.828125 4.765625 -27.234375 C 4.804688 -29.640625 4.734375 -31.507812 4.546875 -32.84375 Z M 4.546875 -32.84375 "/></g></g></g><g fill="#000000" fill-opacity="1"><g transform="translate(140.966395, 47.543862)"><g><path d="M 13.046875 -7.15625 C 13.148438 -7.132812 13.21875 -7.101562 13.25 -7.0625 C 13.289062 -7.019531 13.332031 -6.9375 13.375 -6.8125 C 13.414062 -6.695312 13.375 -6.550781 13.25 -6.375 C 13.125 -6.207031 13.007812 -6.070312 12.90625 -5.96875 C 12.132812 -5.238281 11.222656 -4.800781 10.171875 -4.65625 C 9.578125 -4.570312 8.976562 -4.550781 8.375 -4.59375 C 7.78125 -4.632812 7.195312 -4.78125 6.625 -5.03125 C 6.207031 -5.238281 5.816406 -5.175781 5.453125 -4.84375 C 4.703125 -4.15625 3.921875 -3.5 3.109375 -2.875 C 2.691406 -2.5625 2.25 -2.300781 1.78125 -2.09375 C 1.320312 -1.882812 0.820312 -1.765625 0.28125 -1.734375 C -1.300781 -1.765625 -1.925781 -2.539062 -1.59375 -4.0625 C -1.570312 -4.125 -1.546875 -4.175781 -1.515625 -4.21875 C -1.066406 -5.445312 -0.46875 -6.554688 0.28125 -7.546875 C 1.03125 -8.546875 1.976562 -9.375 3.125 -10.03125 C 3.882812 -10.476562 4.703125 -10.648438 5.578125 -10.546875 C 5.804688 -10.503906 6.023438 -10.421875 6.234375 -10.296875 C 6.492188 -10.171875 6.597656 -9.96875 6.546875 -9.6875 C 6.523438 -9.601562 6.484375 -9.53125 6.421875 -9.46875 C 6.359375 -9.40625 6.296875 -9.347656 6.234375 -9.296875 C 6.191406 -9.242188 6.140625 -9.207031 6.078125 -9.1875 C 6.023438 -9.175781 5.960938 -9.171875 5.890625 -9.171875 C 5.265625 -9.148438 4.726562 -8.960938 4.28125 -8.609375 C 3.832031 -8.265625 3.421875 -7.878906 3.046875 -7.453125 C 2.628906 -6.984375 2.242188 -6.46875 1.890625 -5.90625 C 1.535156 -5.34375 1.242188 -4.675781 1.015625 -3.90625 C 1.847656 -4.382812 2.5 -4.863281 2.96875 -5.34375 C 3.070312 -5.445312 3.175781 -5.539062 3.28125 -5.625 C 3.375 -5.707031 3.460938 -5.78125 3.546875 -5.84375 C 3.960938 -6.238281 4.398438 -6.582031 4.859375 -6.875 C 5.378906 -7.164062 5.894531 -7.3125 6.40625 -7.3125 C 6.914062 -7.3125 7.414062 -7.101562 7.90625 -6.6875 C 8.5625 -6.101562 9.203125 -5.875 9.828125 -6 C 10.460938 -6.125 11.050781 -6.34375 11.59375 -6.65625 C 12.144531 -6.988281 12.628906 -7.15625 13.046875 -7.15625 Z M 13.046875 -7.15625 "/></g></g></g><g fill="#000000" fill-opacity="1"><g transform="translate(153.02279, 47.543862)"><g><path d="M 7.546875 -9.640625 C 7.710938 -9.585938 7.84375 -9.507812 7.9375 -9.40625 C 8.039062 -9.300781 8.078125 -9.160156 8.046875 -8.984375 C 7.972656 -8.566406 7.867188 -8.160156 7.734375 -7.765625 C 7.484375 -6.921875 7.164062 -6.109375 6.78125 -5.328125 C 6.394531 -4.546875 5.898438 -3.816406 5.296875 -3.140625 C 5.109375 -2.929688 4.910156 -2.738281 4.703125 -2.5625 C 4.503906 -2.394531 4.273438 -2.265625 4.015625 -2.171875 C 3.390625 -1.984375 2.789062 -1.960938 2.21875 -2.109375 C 1.65625 -2.253906 1.195312 -2.703125 0.84375 -3.453125 C 0.195312 -4.898438 -0.195312 -6.414062 -0.34375 -8 C -0.382812 -8.570312 -0.195312 -8.910156 0.21875 -9.015625 C 0.570312 -9.117188 0.898438 -9.125 1.203125 -9.03125 C 1.515625 -8.945312 1.722656 -8.785156 1.828125 -8.546875 C 1.984375 -8.109375 2.101562 -7.65625 2.1875 -7.1875 C 2.226562 -7.0625 2.265625 -6.9375 2.296875 -6.8125 C 2.328125 -6.601562 2.363281 -6.40625 2.40625 -6.21875 C 2.539062 -5.675781 2.671875 -5.226562 2.796875 -4.875 C 2.929688 -4.519531 3.125 -4.378906 3.375 -4.453125 C 3.632812 -4.523438 3.972656 -4.925781 4.390625 -5.65625 C 4.992188 -6.695312 5.503906 -7.789062 5.921875 -8.9375 C 6.234375 -9.65625 6.773438 -9.890625 7.546875 -9.640625 Z M 7.546875 -9.640625 "/></g></g></g><g fill="#000000" fill-opacity="1"><g transform="translate(161.549096, 47.543862)"><g/></g></g><g fill="#000000" fill-opacity="1"><g transform="translate(172.808374, 47.543862)"><g><path d="M 3.34375 -5.71875 C 3.269531 -5.800781 3.207031 -5.539062 3.15625 -4.9375 C 3.101562 -4.332031 3.078125 -3.539062 3.078125 -2.5625 C 3.078125 -1.59375 3.085938 -0.609375 3.109375 0.390625 C 3.140625 1.390625 3.195312 2.222656 3.28125 2.890625 C 3.375 3.566406 3.484375 3.90625 3.609375 3.90625 C 3.691406 3.75 3.738281 3.226562 3.75 2.34375 C 3.757812 1.457031 3.742188 0.441406 3.703125 -0.703125 C 3.671875 -1.859375 3.625 -2.914062 3.5625 -3.875 C 3.5 -4.832031 3.425781 -5.445312 3.34375 -5.71875 Z M 6.109375 -3.96875 C 6.066406 -3.101562 6.023438 -2.234375 5.984375 -1.359375 C 5.921875 0.117188 5.847656 1.597656 5.765625 3.078125 C 5.660156 4.828125 5.523438 6.582031 5.359375 8.34375 C 5.296875 8.820312 5.191406 9.289062 5.046875 9.75 C 4.828125 10.519531 4.351562 10.90625 3.625 10.90625 C 2.863281 10.9375 2.375 10.570312 2.15625 9.8125 C 1.988281 9.039062 1.863281 8.253906 1.78125 7.453125 C 1.34375 2.703125 1.097656 -2.0625 1.046875 -6.84375 C 1.015625 -8.425781 1.015625 -10.003906 1.046875 -11.578125 C 1.054688 -12.328125 1.445312 -12.671875 2.21875 -12.609375 C 2.8125 -12.585938 3.113281 -12.285156 3.125 -11.703125 C 3.144531 -11.054688 3.15625 -10.394531 3.15625 -9.71875 C 3.15625 -9.25 3.164062 -8.757812 3.1875 -8.25 C 3.1875 -8.082031 3.21875 -7.910156 3.28125 -7.734375 C 3.300781 -7.660156 3.3125 -7.609375 3.3125 -7.578125 C 3.3125 -7.546875 3.320312 -7.53125 3.34375 -7.53125 C 3.375 -7.53125 3.394531 -7.53125 3.40625 -7.53125 C 3.425781 -7.53125 3.445312 -7.53125 3.46875 -7.53125 C 3.488281 -7.53125 3.515625 -7.535156 3.546875 -7.546875 C 3.585938 -7.566406 3.613281 -7.585938 3.625 -7.609375 C 3.625 -7.660156 3.632812 -7.710938 3.65625 -7.765625 C 3.726562 -7.953125 3.769531 -8.125 3.78125 -8.28125 C 3.832031 -9.5 3.859375 -10.710938 3.859375 -11.921875 C 3.859375 -12.816406 3.867188 -13.71875 3.890625 -14.625 C 3.910156 -17.226562 3.910156 -19.847656 3.890625 -22.484375 C 3.867188 -24.148438 3.816406 -25.828125 3.734375 -27.515625 C 3.679688 -28.242188 3.644531 -28.984375 3.625 -29.734375 C 3.625 -29.890625 3.617188 -30.039062 3.609375 -30.1875 C 3.585938 -30.457031 3.578125 -30.726562 3.578125 -31 C 3.609375 -31.9375 4.066406 -32.332031 4.953125 -32.1875 C 5.429688 -32.101562 5.710938 -31.816406 5.796875 -31.328125 C 5.816406 -31.109375 5.847656 -30.882812 5.890625 -30.65625 C 5.960938 -30.039062 6.023438 -29.421875 6.078125 -28.796875 C 6.160156 -26.203125 6.203125 -23.601562 6.203125 -21 C 6.203125 -18.457031 6.191406 -15.914062 6.171875 -13.375 C 6.171875 -12.21875 6.160156 -11.066406 6.140625 -9.921875 C 6.140625 -9.835938 6.140625 -9.753906 6.140625 -9.671875 C 6.140625 -9.265625 6.140625 -8.863281 6.140625 -8.46875 C 6.160156 -8.132812 6.234375 -7.910156 6.359375 -7.796875 C 6.484375 -7.679688 6.710938 -7.644531 7.046875 -7.6875 C 11.515625 -8.03125 15.757812 -9.171875 19.78125 -11.109375 C 22.039062 -12.191406 24.078125 -13.597656 25.890625 -15.328125 C 27.253906 -16.648438 28.265625 -17.984375 28.921875 -19.328125 C 29.578125 -20.679688 29.960938 -21.976562 30.078125 -23.21875 C 30.191406 -24.457031 30.125 -25.609375 29.875 -26.671875 C 29.445312 -28.503906 28.472656 -30.085938 26.953125 -31.421875 C 25.441406 -32.765625 23.554688 -33.804688 21.296875 -34.546875 C 19.035156 -35.285156 16.570312 -35.671875 13.90625 -35.703125 C 11.25 -35.742188 8.5625 -35.382812 5.84375 -34.625 C 3.8125 -34.0625 1.851562 -33.28125 -0.03125 -32.28125 C -1.09375 -31.71875 -2.070312 -31.019531 -2.96875 -30.1875 C -3.394531 -29.800781 -3.753906 -29.390625 -4.046875 -28.953125 C -4.335938 -28.515625 -4.46875 -27.992188 -4.4375 -27.390625 C -4.4375 -27.179688 -4.507812 -27.023438 -4.65625 -26.921875 C -4.8125 -26.816406 -4.992188 -26.753906 -5.203125 -26.734375 C -5.421875 -26.710938 -5.660156 -26.722656 -5.921875 -26.765625 C -6.378906 -26.867188 -6.640625 -27.160156 -6.703125 -27.640625 C -6.722656 -28.117188 -6.617188 -28.59375 -6.390625 -29.0625 C -6.023438 -29.769531 -5.554688 -30.394531 -4.984375 -30.9375 C -4.304688 -31.601562 -3.578125 -32.1875 -2.796875 -32.6875 C -2.015625 -33.1875 -1.195312 -33.640625 -0.34375 -34.046875 C 3.144531 -35.660156 6.8125 -36.660156 10.65625 -37.046875 C 12.28125 -37.203125 14.039062 -37.222656 15.9375 -37.109375 C 17.84375 -36.992188 19.738281 -36.703125 21.625 -36.234375 C 23.507812 -35.765625 25.257812 -35.082031 26.875 -34.1875 C 28.5 -33.289062 29.84375 -32.132812 30.90625 -30.71875 C 31.976562 -29.300781 32.640625 -27.597656 32.890625 -25.609375 C 33.015625 -24.335938 32.929688 -23.101562 32.640625 -21.90625 C 32.347656 -20.71875 31.898438 -19.5625 31.296875 -18.4375 C 30.140625 -16.414062 28.644531 -14.679688 26.8125 -13.234375 C 25.082031 -11.859375 23.238281 -10.707031 21.28125 -9.78125 C 19.320312 -8.851562 17.28125 -8.09375 15.15625 -7.5 C 13.175781 -6.957031 11.160156 -6.582031 9.109375 -6.375 C 8.984375 -6.375 8.859375 -6.363281 8.734375 -6.34375 C 8.722656 -6.332031 8.691406 -6.328125 8.640625 -6.328125 C 8.554688 -6.328125 8.488281 -6.304688 8.4375 -6.265625 C 8.382812 -6.234375 8.347656 -6.175781 8.328125 -6.09375 C 8.285156 -5.90625 8.367188 -5.78125 8.578125 -5.71875 C 8.773438 -5.632812 8.960938 -5.5625 9.140625 -5.5 C 9.296875 -5.4375 9.453125 -5.375 9.609375 -5.3125 C 12.867188 -4.070312 16.046875 -2.660156 19.140625 -1.078125 C 22.242188 0.503906 25.28125 2.203125 28.25 4.015625 C 28.625 4.222656 28.96875 4.472656 29.28125 4.765625 C 29.351562 4.816406 29.394531 4.882812 29.40625 4.96875 C 29.425781 5.0625 29.4375 5.148438 29.4375 5.234375 C 29.414062 5.390625 29.363281 5.503906 29.28125 5.578125 C 29.195312 5.648438 29.09375 5.703125 28.96875 5.734375 C 28.46875 5.867188 28.007812 5.789062 27.59375 5.5 C 26.382812 4.851562 25.164062 4.21875 23.9375 3.59375 C 22.59375 2.851562 21.242188 2.128906 19.890625 1.421875 C 17.898438 0.359375 15.882812 -0.625 13.84375 -1.53125 C 11.800781 -2.445312 9.734375 -3.320312 7.640625 -4.15625 C 7.578125 -4.175781 7.515625 -4.207031 7.453125 -4.25 C 7.265625 -4.332031 7.070312 -4.40625 6.875 -4.46875 C 6.675781 -4.53125 6.503906 -4.53125 6.359375 -4.46875 C 6.210938 -4.40625 6.128906 -4.238281 6.109375 -3.96875 Z M 6.109375 -3.96875 "/></g></g></g><g fill="#000000" fill-opacity="1"><g transform="translate(201.675399, 47.543862)"><g><path d="M 13.046875 -7.15625 C 13.148438 -7.132812 13.21875 -7.101562 13.25 -7.0625 C 13.289062 -7.019531 13.332031 -6.9375 13.375 -6.8125 C 13.414062 -6.695312 13.375 -6.550781 13.25 -6.375 C 13.125 -6.207031 13.007812 -6.070312 12.90625 -5.96875 C 12.132812 -5.238281 11.222656 -4.800781 10.171875 -4.65625 C 9.578125 -4.570312 8.976562 -4.550781 8.375 -4.59375 C 7.78125 -4.632812 7.195312 -4.78125 6.625 -5.03125 C 6.207031 -5.238281 5.816406 -5.175781 5.453125 -4.84375 C 4.703125 -4.15625 3.921875 -3.5 3.109375 -2.875 C 2.691406 -2.5625 2.25 -2.300781 1.78125 -2.09375 C 1.320312 -1.882812 0.820312 -1.765625 0.28125 -1.734375 C -1.300781 -1.765625 -1.925781 -2.539062 -1.59375 -4.0625 C -1.570312 -4.125 -1.546875 -4.175781 -1.515625 -4.21875 C -1.066406 -5.445312 -0.46875 -6.554688 0.28125 -7.546875 C 1.03125 -8.546875 1.976562 -9.375 3.125 -10.03125 C 3.882812 -10.476562 4.703125 -10.648438 5.578125 -10.546875 C 5.804688 -10.503906 6.023438 -10.421875 6.234375 -10.296875 C 6.492188 -10.171875 6.597656 -9.96875 6.546875 -9.6875 C 6.523438 -9.601562 6.484375 -9.53125 6.421875 -9.46875 C 6.359375 -9.40625 6.296875 -9.347656 6.234375 -9.296875 C 6.191406 -9.242188 6.140625 -9.207031 6.078125 -9.1875 C 6.023438 -9.175781 5.960938 -9.171875 5.890625 -9.171875 C 5.265625 -9.148438 4.726562 -8.960938 4.28125 -8.609375 C 3.832031 -8.265625 3.421875 -7.878906 3.046875 -7.453125 C 2.628906 -6.984375 2.242188 -6.46875 1.890625 -5.90625 C 1.535156 -5.34375 1.242188 -4.675781 1.015625 -3.90625 C 1.847656 -4.382812 2.5 -4.863281 2.96875 -5.34375 C 3.070312 -5.445312 3.175781 -5.539062 3.28125 -5.625 C 3.375 -5.707031 3.460938 -5.78125 3.546875 -5.84375 C 3.960938 -6.238281 4.398438 -6.582031 4.859375 -6.875 C 5.378906 -7.164062 5.894531 -7.3125 6.40625 -7.3125 C 6.914062 -7.3125 7.414062 -7.101562 7.90625 -6.6875 C 8.5625 -6.101562 9.203125 -5.875 9.828125 -6 C 10.460938 -6.125 11.050781 -6.34375 11.59375 -6.65625 C 12.144531 -6.988281 12.628906 -7.15625 13.046875 -7.15625 Z M 13.046875 -7.15625 "/></g></g></g><g fill="#000000" fill-opacity="1"><g transform="translate(213.731794, 47.543862)"><g><path d="M 10.96875 -7.03125 C 11.414062 -7.03125 11.660156 -6.882812 11.703125 -6.59375 C 11.753906 -6.3125 11.613281 -5.988281 11.28125 -5.625 C 8.332031 -2.664062 5.457031 0.367188 2.65625 3.484375 C 2.3125 3.867188 2.144531 4.320312 2.15625 4.84375 C 2.15625 6.550781 2.003906 8.554688 1.703125 10.859375 C 1.398438 13.171875 0.988281 15.441406 0.46875 17.671875 C -0.0507812 19.910156 -0.660156 21.769531 -1.359375 23.25 C -1.535156 23.664062 -1.734375 24.070312 -1.953125 24.46875 C -2.179688 24.875 -2.460938 25.234375 -2.796875 25.546875 C -3.859375 26.503906 -4.828125 26.882812 -5.703125 26.6875 C -6.578125 26.5 -7.296875 25.960938 -7.859375 25.078125 C -8.535156 23.941406 -8.859375 22.664062 -8.828125 21.25 C -8.804688 19.832031 -8.535156 18.34375 -8.015625 16.78125 C -7.492188 15.226562 -6.835938 13.703125 -6.046875 12.203125 C -5.253906 10.710938 -4.429688 9.332031 -3.578125 8.0625 C -2.722656 6.789062 -1.945312 5.734375 -1.25 4.890625 C -0.832031 4.335938 -0.519531 3.476562 -0.3125 2.3125 C -0.101562 1.144531 0.0234375 -0.125 0.078125 -1.5 C 0.128906 -2.875 0.128906 -4.171875 0.078125 -5.390625 C 0.0234375 -6.609375 -0.03125 -7.5625 -0.09375 -8.25 C -0.132812 -8.945312 0.15625 -9.332031 0.78125 -9.40625 C 1.632812 -9.507812 2.140625 -9.210938 2.296875 -8.515625 C 2.472656 -7.441406 2.570312 -6.328125 2.59375 -5.171875 C 2.625 -4.023438 2.628906 -2.878906 2.609375 -1.734375 C 2.578125 -1.054688 2.5625 -0.394531 2.5625 0.25 C 4.125 -1.28125 5.765625 -2.78125 7.484375 -4.25 C 7.710938 -4.4375 7.941406 -4.632812 8.171875 -4.84375 C 8.328125 -4.96875 8.507812 -5.125 8.71875 -5.3125 C 9.101562 -5.707031 9.515625 -6.085938 9.953125 -6.453125 C 10.398438 -6.816406 10.738281 -7.007812 10.96875 -7.03125 Z M -3.703125 22.625 C -3.097656 21.3125 -2.609375 19.820312 -2.234375 18.15625 C -1.859375 16.5 -1.546875 14.8125 -1.296875 13.09375 C -1.054688 11.382812 -0.851562 9.769531 -0.6875 8.25 C -0.664062 7.976562 -0.644531 7.710938 -0.625 7.453125 C -1.1875 7.941406 -1.820312 8.847656 -2.53125 10.171875 C -3.25 11.492188 -3.925781 13.007812 -4.5625 14.71875 C -5.195312 16.4375 -5.664062 18.09375 -5.96875 19.6875 C -6.269531 21.289062 -6.296875 22.613281 -6.046875 23.65625 C -5.796875 24.425781 -5.523438 24.78125 -5.234375 24.71875 C -4.941406 24.65625 -4.648438 24.390625 -4.359375 23.921875 C -4.078125 23.453125 -3.859375 23.019531 -3.703125 22.625 Z M -0.375 -13.015625 C -0.394531 -13.046875 -0.40625 -13.066406 -0.40625 -13.078125 C -0.613281 -13.742188 -0.769531 -14.425781 -0.875 -15.125 C -0.9375 -15.570312 -0.816406 -15.890625 -0.515625 -16.078125 C -0.210938 -16.273438 0.1875 -16.285156 0.6875 -16.109375 C 1.34375 -15.898438 1.738281 -15.519531 1.875 -14.96875 C 2.050781 -14.25 2.09375 -13.523438 2 -12.796875 C 1.894531 -12.109375 1.425781 -11.859375 0.59375 -12.046875 C 0.09375 -12.171875 -0.226562 -12.492188 -0.375 -13.015625 Z M -0.375 -13.015625 "/></g></g></g></svg>